<svg xmlns="http://www.w3.org/2000/svg" xmlns:xlink="http://www.w3.org/1999/xlink" fill="#eb1b24" viewBox="0 0 242 30"><path d="M213.377 12.1039V9.30579h-4.366V29.4759h4.407V18.6845c0-3.4316 2.005-5.3821 4.813-5.3821h3.443V9.30579h-2.434c-2.466 0-4.534.88411-5.863 2.79811zM20.8007 21.3277L4.30169 0H0v29.4759h4.76748l.02284-21.32764L21.2664 29.4759h4.3017V0h-4.7674v21.3277zM100.09 8.77715c-2.046 0-4.5348.61067-6.1605 2.93025V0h-4.425v29.4759h4.4296V18.2926c0-3.4498 2.3837-5.3228 5.2332-5.3228 2.9497 0 4.7037 1.8958 4.7037 5.2818v11.2243h4.429V16.8024c-.004-4.7167-3.402-8.02525-8.21-8.02525zM41.2634 8.7771c-6.2425 0-10.8639 4.5572-10.8639 10.6137s4.6214 10.6091 10.8639 10.6091c6.2424 0 10.8866-4.5571 10.8866-10.6091S47.4921 8.7771 41.2634 8.7771zm0 17.0758c-3.6076 0-6.3247-2.6523-6.3247-6.4621 0-3.8098 2.7171-6.4667 6.3247-6.4667 3.6075 0 6.352 2.6569 6.352 6.4667 0 3.8098-2.7445 6.4621-6.352 6.4621zM80.2161 25.853c-1.7718 0-3.1966-1.0527-3.1966-3.7688V13.307h7.7631V9.30582h-7.7631V3.19006h-4.4296V9.2967h-5.3748c-2.4705 0-4.5392.8841-5.868 2.7981V9.30582h-4.3657V29.4759h4.4113V18.6845c0-3.4315 2.0048-5.382 4.8086-5.382h6.3932v8.8683c0 5.3683 2.676 7.8292 7.2562 7.8292 2.223-.0218 4.3863-.7198 6.2014-2.0006l-1.749-3.5136c-1.2142.8145-2.6262 1.2868-4.087 1.3672zM123.635 12.9241c1.941 0 3.438.7611 4.85 2.0872l2.826-3.0123c-1.79-2.12362-4.534-3.2219-7.553-3.2219-6.434 0-10.631 4.5572-10.631 10.6137s4.197 10.6091 10.627 10.6091c3.018 0 5.717-1.0937 7.553-3.2219l-2.74-3.0305c-1.326 1.3015-3.096 2.0537-4.955 2.1054-3.398 0-5.973-2.6523-5.973-6.4621 0-3.8098 2.598-6.4667 5.996-6.4667zM144.605 8.7771c-6.248 0-10.869 4.5572-10.869 10.6137s4.631 10.6091 10.869 10.6091c6.237 0 10.882-4.5571 10.882-10.6091s-4.64-10.6137-10.882-10.6137zm0 17.0758c-3.608 0-6.33-2.6523-6.33-6.4621 0-3.8098 2.74-6.4667 6.33-6.4667 3.589 0 6.347 2.6569 6.347 6.4667 0 3.8098-2.74 6.4621-6.347 6.4621zM175.319 11.7484c-.747-.9637-1.713-1.7359-2.818-2.25264-1.106-.51672-2.319-.76307-3.538-.71861-5.654 0-10.102 4.44325-10.102 10.61375 0 6.1704 4.453 10.6091 10.102 10.6091 2.872 0 4.959-1.1575 6.352-2.9485v2.4244h4.411V0h-4.411l.004 11.7484zm-5.822 14.1046c-3.8 0-6.097-2.9258-6.097-6.4621 0-3.5364 2.284-6.4667 6.097-6.4667 3.653 0 6.096 2.7799 6.096 6.4667 0 3.6867-2.448 6.4621-6.096 6.4621zM194.622 8.7771c-5.937 0-10.046 4.2974-10.046 10.6137 0 6.3801 4.283 10.6091 10.338 10.6091 3.06 0 5.845-.7337 8.311-2.8436l-2.192-3.1354c-1.66 1.3331-3.715 2.0814-5.845 2.1282-2.868 0-5.42-1.5175-6.009-5.1405h14.932c.046-.5013.087-1.0709.087-1.6406-.041-6.2935-3.923-10.5909-9.576-10.5909zm-5.443 8.8865c.456-2.9485 2.214-4.9673 5.361-4.9673 2.804 0 4.639 1.8229 5.123 4.9673h-10.484zM234.977 17.4313l-2.083-.3145c-1.858-.2734-3.333-.6744-3.333-2.0871 0-1.4128 1.411-2.3971 3.817-2.3971 2.195.0403 4.344.6345 6.247 1.7271l1.891-3.4224c-2.087-1.36717-5.023-2.12822-8.183-2.12822-5.147 0-8.357 2.46542-8.357 6.46212 0 3.2447 2.384 5.3046 6.85 5.9243l2.109.2689c2.402.3372 3.503 1.0983 3.503 2.233 0 1.5176-1.585 2.4655-4.599 2.4655-3.292 0-5.21-.9479-6.667-2.0644l-2.046 3.3039c2.95 2.192 6.581 2.5885 8.677 2.5885 5.822 0 9.197-2.7343 9.197-6.5851 0-3.4681-2.612-5.3411-7.023-5.9745z"></path></svg>